# xmcd
#
# Track frame offsets: 
#        150
#        14640
#        28850
#        44420
#        59332
#        74545
#        89090
#        103427
#        118580
#        131297
#        145400
#        157915
#        170295
#        183427
#        197640
#        211300
#        225345
#        238440
#        250440
#        261875
#        275510
#        288525
#        300142
#
# Disc length: 4155 seconds
#
# Revision: 0
# Processed by: cddbd v1.5.2PL0 Copyright (c) Steve Scherf et al.
# Submitted via: ExactAudioCopy v1.0b2
#
DISCID=5d103917
DTITLE=Jimmy Gordon - 1934-1938. The Remaining Titles
DYEAR=1900
DGENRE=Blues
TTITLE0=Louise, Louisa Blues
TTITLE1=Bye Bye Baby Blues
TTITLE2=Black Gal Blues
TTITLE3=Gone Gal Blues
TTITLE4=Drive Me Away Blues
TTITLE5=Graveyard Blues (Dead And Gone Blues)
TTITLE6=Bed Springs Blues No. 2
TTITLE7=Soon In The Morning
TTITLE8=Little Red Dress (Mary Usta Wear)
TTITLE9=Big Four Whistle Blues
TTITLE10=Sweet Jelly Rollin'
TTITLE11=Baker Man
TTITLE12=Drunken Woman Blues
TTITLE13=I'd Rather Drink Muddy Water
TTITLE14=Mother Blues
TTITLE15=Think You Need A Shot
TTITLE16=C. C. and St. Louis Blues
TTITLE17=Playing In The Grass
TTITLE18=You're Bound To Look Like A Monkey
TTITLE19=Good As I Been To You
TTITLE20=Rattlesnake Bite
TTITLE21=I Believe I Been Hoodood
TTITLE22=Sail With Me
EXTD=
EXTT0=
EXTT1=
EXTT2=
EXTT3=
EXTT4=
EXTT5=
EXTT6=
EXTT7=
EXTT8=
EXTT9=
EXTT10=
EXTT11=
EXTT12=
EXTT13=
EXTT14=
EXTT15=
EXTT16=
EXTT17=
EXTT18=
EXTT19=
EXTT20=
EXTT21=
EXTT22=
PLAYORDER=
